<?xml version="1.0" encoding="UTF-8" standalone="no"?>
<svg
   xmlns:dc="http://purl.org/dc/elements/1.1/"
   xmlns:cc="http://creativecommons.org/ns#"
   xmlns:rdf="http://www.w3.org/1999/02/22-rdf-syntax-ns#"
   xmlns:svg="http://www.w3.org/2000/svg"
   xmlns="http://www.w3.org/2000/svg"
   xmlns:sodipodi="http://sodipodi.sourceforge.net/DTD/sodipodi-0.dtd"
   xmlns:inkscape="http://www.inkscape.org/namespaces/inkscape"
   sodipodi:docname="logo.pdf"
   viewBox="0 0 321.33334 133.33333"
   height="133.33333"
   width="321.33334"
   xml:space="preserve"
   id="svg2"
   version="1.1"><metadata
     id="metadata8"><rdf:RDF><cc:Work
         rdf:about=""><dc:format>image/svg+xml</dc:format><dc:type
           rdf:resource="http://purl.org/dc/dcmitype/StillImage" /></cc:Work></rdf:RDF></metadata><defs
     id="defs6"><clipPath
       id="clipPath20"
       clipPathUnits="userSpaceOnUse"><path
         id="path18"
         d="M 0,0 H 339 V 200 H 0 Z" /></clipPath><clipPath
       id="clipPath30"
       clipPathUnits="userSpaceOnUse"><path
         id="path28"
         d="M 0,0 H 3383.79 V 1995.33 H 0 Z" /></clipPath></defs><sodipodi:namedview
     id="namedview4"
     inkscape:window-height="480"
     inkscape:window-width="640"
     inkscape:pageshadow="2"
     inkscape:pageopacity="0"
     guidetolerance="10"
     gridtolerance="10"
     objecttolerance="10"
     borderopacity="1"
     bordercolor="#666666"
     pagecolor="#ffffff" /><g
     transform="matrix(1.3333333,0,0,-1.3333333,0,133.33333)"
     inkscape:label="logo"
     inkscape:groupmode="layer"
     id="g10"><g
       transform="translate(-49,-50)"
       id="g12"><g
         id="g14"><g
           clip-path="url(#clipPath20)"
           id="g16"><g
             transform="scale(0.1)"
             id="g22"><g
               id="g24"><g
                 clip-path="url(#clipPath30)"
                 id="g26"><path
                   id="path32"
                   style="fill:#001f38;fill-opacity:1;fill-rule:nonzero;stroke:none"
                   d="m 1294.8,549.75 c 52.6,0 87.77,31.859 87.77,93.191 v 120.528 h -23.75 v -122.34 c 0,-45.988 -24.65,-69.438 -63.41,-69.438 -40.28,0 -64.34,25.547 -64.34,70.938 v 120.84 h -23.74 v -122.34 c 0,-59.52 35.47,-91.379 87.47,-91.379 m 134.05,3.301 H 1452 v 88.988 c 0,29.152 19.84,48.691 46.6,48.691 27.36,0 42.97,-18.031 42.97,-46.89 v -90.789 h 23.15 v 96.508 c 0,36.961 -21.93,62.211 -59.52,62.211 -26.75,0 -42.98,-13.532 -53.2,-30.36 v 27.051 h -23.15 z M 1608.6,742.43 h 26.45 v 25.55 h -26.45 z m 1.5,-189.379 h 23.15 v 155.41 h -23.15 z m 122.95,-1.192 h 20.43 l 67.63,156.602 h -24.94 l -52.61,-128.949 -52.29,128.949 h -25.55 z m 123.22,69.43 h 123.25 c 0.3,3.621 0.3,6.012 0.3,8.121 0,45.68 -26.46,82.36 -72.44,82.36 -43,0 -74.55,-36.071 -74.55,-81.149 0,-48.402 34.85,-81.172 77.55,-81.172 29.44,0 48.4,11.731 64.01,29.16 l -14.42,12.93 c -12.62,-13.23 -27.66,-21.93 -48.99,-21.93 -27.36,0 -51.39,18.93 -54.71,51.68 m 0,18.652 c 3.32,30.047 23.75,52.278 50.51,52.278 30.65,0 46.88,-24.028 49.59,-52.278 z m 158.1,-86.89 h 23.15 v 61.937 c 0,46.883 27.66,71.231 61.62,71.231 h 1.81 v 24.941 c -29.47,1.219 -52.01,-17.43 -63.43,-43.269 v 40.57 h -23.15 z m 167.13,-3 c 30.95,0 55.31,17.14 55.31,46.59 v 0.597 c 0,27.953 -25.85,37.293 -49.9,44.492 -20.73,6.309 -39.97,12.02 -39.97,26.758 v 0.594 c 0,12.938 11.72,22.559 30.05,22.559 15.03,0 31.55,-5.719 46,-15.039 l 10.5,17.429 c -15.91,10.528 -36.96,17.129 -55.89,17.129 -30.66,0 -52.91,-17.719 -52.91,-44.469 v -0.609 c 0,-28.551 27.05,-36.973 51.39,-43.891 20.45,-5.711 38.78,-11.722 38.78,-27.351 v -0.602 c 0,-15.019 -13.52,-24.629 -32.16,-24.629 -18.33,0 -36.98,7.2 -53.81,19.821 l -11.72,-16.52 c 17.44,-14.14 42.09,-22.859 64.33,-22.859 m 92.88,192.379 h 26.45 v 25.55 h -26.45 z m 1.5,-189.379 h 23.15 v 155.41 h -23.15 z m 122.93,-2.692 c 11.12,0 19.85,2.391 27.95,6.61 v 19.84 c -8.1,-3.899 -14.72,-5.411 -22.54,-5.411 -15.64,0 -26.15,6.911 -26.15,25.84 v 90.774 h 49.29 v 20.449 h -49.29 v 46.891 h -23.14 v -46.891 h -21.65 v -20.449 h 21.65 v -93.774 c 0,-31.566 18.94,-43.879 43.88,-43.879 m 87.47,-46.289 c 23.45,0 38.47,11.731 51.7,43.891 l 65.23,160.5 h -24.65 l -49.9,-129.551 -56.5,129.551 h -25.55 l 70.63,-154.789 c -9.31,-21.953 -18.04,-29.172 -31.85,-29.172 -9.92,0 -16.85,1.801 -24.37,5.711 l -7.81,-18.332 c 10.53,-5.098 20.15,-7.809 33.07,-7.809" /><path
                   id="path34"
                   style="fill:#001f38;fill-opacity:1;fill-rule:nonzero;stroke:none"
                   d="m 1306.41,853.379 c 32.78,0 60.19,6.68 82.21,20.043 22,13.359 38.55,32.187 49.63,56.488 11.08,24.281 16.63,53.11 16.63,86.52 0,51.62 -13.06,91.55 -39.17,119.78 -26.11,28.24 -62.55,42.35 -109.3,42.35 h -139.36 v -19.12 h 5.92 c 10.02,0 18.75,-1.81 26.19,-5.48 7.43,-3.63 11.16,-12.14 11.16,-25.5 V 905.309 c 0,-14.27 -3.65,-23.309 -10.94,-27.11 -7.29,-3.789 -16.09,-5.687 -26.41,-5.687 h -5.92 v -19.133 z m -50.1,302.421 h 40.08 c 35.83,0 62.76,-12.01 80.84,-35.98 18.06,-24 27.09,-58.46 27.09,-103.39 0,-44.93 -9.03,-79.461 -27.09,-103.598 -18.08,-24.152 -45.17,-36.211 -81.3,-36.211 h -39.62 z m 380.73,-298.991 c 12.45,5.312 23.38,16.461 32.8,33.472 h 2.27 l 5.92,-36.902 h 72.42 v 19.133 h -1.36 c -10.03,0 -18.75,1.75 -26.2,5.238 -7.44,3.488 -11.15,11.91 -11.15,25.281 V 1097.5 h -81.52 v -19.12 h 1.36 c 10.31,0 19.12,-1.91 26.42,-5.7 7.27,-3.8 10.93,-12.84 10.93,-27.11 v -93.82 c 0,-22.141 -4.57,-39.988 -13.66,-53.5 -9.11,-13.512 -23.69,-20.27 -43.74,-20.27 -18.51,0 -31.11,5.461 -37.78,16.399 -6.69,10.93 -10.03,26.262 -10.03,45.992 V 1097.5 h -81.52 v -19.12 h 1.37 c 10.02,0 18.75,-1.83 26.17,-5.48 7.45,-3.64 11.18,-12.15 11.18,-25.51 v -109.3 c 0,-31.27 6.51,-53.949 19.57,-68.07 13.06,-14.129 31.57,-21.18 55.56,-21.18 14.88,0 28.54,2.66 40.99,7.969 m 261.43,-3.43 v 19.133 h -12.76 c -10.02,0 -18.75,1.75 -26.19,5.238 -7.45,3.488 -11.15,11.91 -11.15,25.281 v 71.508 c 0,8.813 0.75,18.742 2.26,29.831 1.53,11.07 3.95,21.78 7.3,32.11 3.34,10.31 7.89,18.81 13.66,25.5 5.76,6.67 12.89,10.01 21.4,10.01 8.82,0 15.03,-2.81 18.68,-8.42 3.64,-5.63 5.46,-14.66 5.46,-27.09 15.18,0 26.03,3.03 32.57,9.09 6.52,6.09 9.78,13.82 9.78,23.23 0,10.63 -4.02,18.83 -12.06,24.6 -8.05,5.77 -20.43,8.66 -37.11,8.66 -13.38,0 -23.86,-2.29 -31.43,-6.84 -7.6,-4.54 -13.67,-10.54 -18.22,-17.99 -4.57,-7.45 -8.81,-15.72 -12.75,-24.82 h -2.28 l -8.66,45.09 h -70.13 v -19.12 h 1.37 c 10.02,0 18.75,-1.83 26.17,-5.48 7.45,-3.64 11.18,-12.15 11.18,-25.51 V 905.309 c 0,-14.27 -3.66,-23.309 -10.94,-27.11 -7.29,-3.789 -16.11,-5.687 -26.41,-5.687 h -1.37 v -19.133 z m 189.45,0 v 19.133 h -1.38 c -10.01,0 -18.75,1.75 -26.18,5.238 -7.44,3.488 -11.15,11.91 -11.15,25.281 v 96.098 c 0,22.451 4.46,40.381 13.43,53.741 8.96,13.36 22.84,20.03 41.67,20.03 18.52,0 31.49,-5.46 38.94,-16.39 7.44,-10.94 11.16,-26.26 11.16,-45.99 V 853.379 h 79.23 v 19.133 h -1.36 c -10.33,0 -18.75,1.898 -25.27,5.687 -6.53,3.801 -9.78,12.84 -9.78,27.11 v 107.481 c 0,31.27 -6.92,53.96 -20.73,68.08 -13.83,14.11 -33.8,21.19 -59.89,21.19 -30.98,0 -53.28,-13.83 -66.94,-41.46 h -2.28 c 0.59,8.2 1.05,15.33 1.37,21.41 0.28,6.07 0.45,11.85 0.45,17.31 v 100.2 h -83.81 v -19.14 h 3.65 c 10.01,0 18.73,-1.82 26.18,-5.46 7.44,-3.63 11.16,-12.15 11.16,-25.51 V 905.309 c 0,-14.27 -3.65,-23.309 -10.92,-27.11 -7.3,-3.789 -16.11,-5.687 -26.42,-5.687 h -3.65 v -19.133 z m 264.6,1.16 c 8.2,3.793 15.33,8.941 21.4,15.481 6.07,6.519 12.31,14.031 18.68,22.531 h 3.63 l 7.29,-39.172 H 2465 v 19.133 h -1.37 c -10.32,0 -17.6,2.289 -21.84,6.84 -4.26,4.546 -6.39,13.199 -6.39,25.957 v 117.961 c 0,28.84 -6.91,49.18 -20.72,61.02 -13.81,11.84 -34.69,17.77 -62.62,17.77 -15.18,0 -28.93,-1.45 -41.22,-4.33 -12.29,-2.89 -22.16,-7.6 -29.6,-14.12 -7.45,-6.54 -11.15,-14.96 -11.15,-25.29 0,-10.32 3.25,-17.68 9.78,-22.08 6.53,-4.39 16.17,-6.6 28.93,-6.6 0,9.41 0.97,17.91 2.97,25.5 1.97,7.59 5.97,13.51 12.06,17.76 6.06,4.26 14.87,6.38 26.41,6.38 12.45,0 21.7,-2.44 27.78,-7.29 6.07,-4.85 10.03,-11.46 11.84,-19.81 1.83,-8.36 2.74,-17.99 2.74,-28.91 v -27.329 l -37.81,-1.359 c -34.91,-1.23 -60.95,-7.602 -78.1,-19.133 -17.15,-11.551 -25.72,-29.461 -25.72,-53.738 0,-24.91 6.67,-43.27 20.02,-55.109 13.36,-11.852 30.21,-17.762 50.56,-17.762 12.45,0 22.76,1.89 30.97,5.699 m -57.38,64.891 c 0,17.91 4.93,31.48 14.79,40.75 9.87,9.269 27.71,14.5 53.52,15.711 l 29.15,1.371 v -36.891 c 0,-19.43 -5.46,-34.84 -16.4,-46.211 -10.93,-11.39 -25.65,-17.078 -44.17,-17.078 -24.6,0 -36.89,14.109 -36.89,42.348 m 315.6,-66.051 v 19.133 h -1.37 c -10.02,0 -18.75,1.75 -26.19,5.238 -7.43,3.488 -11.15,11.91 -11.15,25.281 v 96.098 c 0,13.051 1.66,25.201 5,36.441 3.35,11.22 8.81,20.27 16.41,27.09 7.58,6.84 18.06,10.24 31.42,10.24 17.6,0 29.98,-5.46 37.11,-16.39 7.14,-10.94 10.71,-26.26 10.71,-45.99 V 853.379 h 79.23 v 19.133 h -1.36 c -10.33,0 -18.75,1.898 -25.27,5.687 -6.54,3.801 -9.78,12.84 -9.78,27.11 v 99.731 c 0,12.15 1.58,23.39 4.77,33.71 3.2,10.31 8.43,18.6 15.71,24.82 7.29,6.21 17.32,9.33 30.07,9.33 17.6,0 29.96,-5.46 37.11,-16.39 7.13,-10.94 10.7,-26.26 10.7,-45.99 V 853.379 h 79.24 v 19.133 h -1.36 c -10.33,0 -18.75,1.898 -25.27,5.687 -6.53,3.801 -9.8,12.84 -9.8,27.11 v 107.481 c 0,31.27 -6.6,53.96 -19.82,68.08 -13.2,14.11 -31.34,21.19 -54.41,21.19 -13.96,0 -27.11,-2.66 -39.4,-7.98 -12.3,-5.31 -23,-16.46 -32.11,-33.48 h -3.65 c -5.76,15.18 -14.57,25.9 -26.41,32.11 -11.84,6.24 -25.05,9.35 -39.62,9.35 -13.97,0 -26.63,-2.66 -38.02,-7.98 -11.4,-5.31 -21.63,-16.46 -30.75,-33.48 h -2.28 l -5.9,36.9 h -71.52 v -19.12 h 1.37 c 10.02,0 18.38,-1.83 25.05,-5.48 6.67,-3.64 10.02,-12.15 10.02,-25.51 V 905.309 c 0,-14.27 -3.26,-23.309 -9.79,-27.11 -6.53,-3.789 -14.96,-5.687 -25.28,-5.687 h -5.92 v -19.133 h 122.51" /><path
                   id="path36"
                   style="fill:#611c66;fill-opacity:1;fill-rule:nonzero;stroke:none"
                   d="m 1116.4,1211.45 c 5.77,55.03 0.33,165.58 -10.61,225.41 -2.53,13.85 -11.52,30.98 -35.4,36.55 -61.07,14.22 -141.824,22.12 -227.921,22.78 -7.489,-61.64 -13.809,-147.06 -13.809,-243.56 l 0.098,-36.91 0.015,-2.04 9.161,-0.86 c 4.379,-0.4 6.07,-2.79 6.695,-7.21 0.617,-4.36 1.18,-9.76 1.18,-9.76 0,0 164.071,0.95 270.591,15.6" /><path
                   id="path38"
                   style="fill:#611c66;fill-opacity:1;fill-rule:nonzero;stroke:none"
                   d="m 785.395,1134.11 -9.18,0.86 c -4.391,0.41 -6.227,2.76 -6.695,7.22 -0.454,4.14 -1.18,9.76 -1.18,9.76 l 0.019,0.05 c -73.078,0 -155.461,-0.39 -261.984,-15.04 14.367,-82.28 108.402,-268.39 259.898,-348.05 7.497,61.641 19.301,211.9 19.301,308.39 l -0.156,34.82 -0.008,2.05 -0.015,-0.06" /><path
                   id="path40"
                   style="fill:#611c66;fill-opacity:1;fill-rule:nonzero;stroke:none"
                   d="m 845.762,1152 c 73.054,0 156.188,-0.39 262.708,-15.04 -14.37,-82.28 -108.4,-268.39 -259.907,-348.05 -7.477,61.641 -19.969,211.9 -19.969,308.39 l 0.551,35.45 -0.075,1.42 8.789,0.8 c 4.383,0.41 6.157,2.78 6.696,7.22 0.492,4.04 1.179,9.76 1.179,9.76 l 0.028,0.05" /><path
                   id="path42"
                   style="fill:#611c66;fill-opacity:1;fill-rule:nonzero;stroke:none"
                   d="m 645.441,1318.63 c -0.394,-0.76 -0.136,-2.05 0.274,-2.65 0.64,0.07 2.18,0.51 3.008,1.02 0.953,0.59 1.23,1.05 2.254,1.78 -0.993,0.08 -5.399,0.1 -5.536,-0.15" /><path
                   id="path44"
                   style="fill:#611c66;fill-opacity:1;fill-rule:nonzero;stroke:none"
                   d="m 679.25,1278.51 c 0,-2.57 -3.906,-4.08 -4.695,-5.23 -0.391,-0.58 -0.719,-0.93 -0.879,-1.56 -0.469,1.66 0.414,3.03 0.414,4.22 0,1.35 -0.945,1.99 -2.305,1.99 -2.051,0 -7.555,-4.97 -4.234,-12.92 -0.219,2.82 0.828,4.68 1.301,5.2 0.472,0.53 0.906,1.56 0.808,2.4 1.067,-1.97 1.289,-2.86 1.289,-4.43 0,-3.39 -2.461,-4.1 -1.308,-6.62 0.211,-0.69 0.441,-1.26 0.797,-2.15 0,1.19 0.21,2.24 0.421,3.08 0.204,0.83 1.516,2.39 1.668,3.02 0.157,0.63 0.211,1.26 0.051,2.04 1.098,-1.36 1.828,-2.54 1.828,-4.75 0,-2.55 -1.152,-4.02 -1.468,-4.75 -0.309,-0.74 -0.672,-1.46 -0.825,-2.71 -0.715,-5.64 -3.492,-8.29 -7.152,-8.29 -2.297,0 -4.016,0.36 -5.469,1.31 0,-7.25 -8.258,-6.68 -8.258,-11.43 0,-1.31 0.887,-2.87 1.774,-3.76 0.883,-0.88 4.234,-2.12 5.48,-3.74 -1.804,-0.12 -3.746,-0.74 -4.785,-1.94 2.961,-1.48 2.887,-3.16 3.274,-5.4 -2.914,1.45 -4.243,0.61 -4.997,-0.18 -0.886,-0.94 -0.457,-2.18 -1.48,-3.62 -0.469,1.14 -1.234,2.1 -2.48,2.1 -1.262,0 -3.836,-2.25 -3.875,-2.99 -0.11,-1.98 -1.051,-2.76 -2.836,-2.99 -1.336,-1.43 -1.016,-2.15 -0.969,-3.48 -1.156,1.09 -1.344,1.8 -0.899,3.79 -1.343,0.54 -1.179,1.66 -0.781,2.65 l -0.5,0.35 c -0.726,-0.64 -1.457,-1.55 -3.238,-0.71 -0.684,-0.29 -1.582,-1.35 -1.727,-2.6 -0.461,2.99 0.481,4.02 0.973,4.47 -0.301,0.68 0.129,2.09 1.348,2.62 0,0.3 -0.114,0.45 -0.153,0.59 -1,0 -1.836,0.4 -2.187,1.05 -0.961,0.18 -2.274,-0.96 -2.52,-1.66 0,1.68 1.34,3.38 2.324,3.79 1.122,2.23 3.262,2.63 4.551,1.33 0.719,-0.71 2.43,-1.49 4.172,-1.49 1.727,0 3.317,1.44 3.731,2.02 0.418,0.57 0.464,0.67 0.679,1.15 0.379,0.86 1.102,1.87 -0.679,4.11 -1.407,1.78 -4.918,5.22 -4.985,7.67 -0.109,4.04 1.762,6.4 3.586,8.01 -0.637,0 -0.472,0 -1.445,0 -2.578,0 -2.797,1.61 -5.43,1.61 -1.922,0 -3.066,-1.93 -3.066,-3.61 0,-1.66 0.301,-2.02 0.886,-3.1 0.801,-1.49 1.094,-2.31 0.879,-3.81 -1.515,1.37 -3.683,2.06 -5.41,0.54 -0.672,-1.93 -1.086,-2.69 -2.324,-3.61 -0.109,1.6 -3.41,4.16 -6.359,1.43 -0.289,-0.69 -0.547,-2.22 -2.606,-2.22 -1.226,0 -1.105,0.29 -1.617,0.5 -0.84,-0.73 -1.555,-1.54 -1.797,-2.59 -0.43,1.59 0.137,2.96 0.684,3.64 -0.196,0.69 -0.137,2.4 0.746,2.87 -0.266,0.3 -0.156,0.1 -0.399,0.53 -1.285,-1.09 -3.308,-1.23 -4.187,0.01 -0.746,-0.13 -1.457,-0.66 -2.25,-2.26 -0.192,1.62 0.914,3.47 1.676,4 0.019,1.24 1.714,2.32 3.457,1.95 0.132,0.2 -0.032,0.34 0.164,0.6 0.176,0.25 -0.071,0.14 -0.071,0.14 -0.503,0.28 -2.16,0.35 -2.05,2.41 -1.008,0.36 -1.961,-0.12 -2.653,-0.72 0.684,1.77 2.168,2.33 3.301,2.44 0.414,0.78 1.68,0.87 2.328,0.87 1.207,0 2.024,-0.58 2.223,-1.33 1.219,-2.17 3.988,-2.89 6.699,-2.89 1.363,0 2.516,1.03 2.516,2.6 0,1.56 -2.653,6.12 -2.653,8.22 0,2.07 3.739,6.09 6.254,6.09 7.637,0 9.399,-3.19 11.114,-3.19 2.414,0 2.73,0.49 3.101,0.88 -3.598,4.42 -5.891,4.34 -9.32,6.69 -1.731,1.19 -2.617,3.19 -2.883,5.05 -2.117,-0.49 -4.188,-3.33 -5.195,-5.09 -0.473,0.83 -1.196,1.4 -2.086,1.4 -1.699,0 -2.91,-2.22 -3.711,-4.1 -0.488,2.16 -1.785,4.16 -4.262,4.16 -1.387,0 -2.965,-0.59 -3.359,-1.5 -0.395,-0.88 -1.707,-2.23 -3.75,-1.7 -0.731,-0.53 -1.41,-0.73 -1.93,-3.01 -0.695,2.85 0.008,3.38 0.402,4.08 -0.402,1.87 0.375,2.55 0.731,3 l -0.199,0.5 c -1.11,-0.37 -2.75,-0.24 -3.231,0.72 -1.246,0.06 -1.609,-0.1 -2.676,-1.7 0.207,1.81 1.239,3.3 2.371,3.73 0.43,1.06 1.899,1.5 3.067,1.5 0.101,0.3 0.191,0.3 0.25,0.55 -0.762,0.42 -1.41,1.38 -1.254,2.52 -0.938,1.08 -1.973,0.4 -2.832,0.09 1.496,1.56 3.273,2.14 4.465,1.45 2.586,0.86 3.476,-0.35 3.719,-1.79 0.296,-1.66 2.882,-1.89 5.558,-1.89 5.856,0 15.156,5.46 14.484,9.78 -1.386,0.35 -1.542,0.29 -2.628,0.29 -3.129,0 -7.039,-3.91 -10.122,-3.96 1.543,1.74 0.59,3.5 1.442,4.8 -1.692,0.04 -3.414,-1.03 -6.645,-0.73 1.086,0.64 1.836,2.92 1.836,3.72 0,0.79 0,2.38 -3.476,2.38 -0.344,-0.1 -1.285,-0.39 -1.985,-0.39 -0.816,0 -3.109,0.2 -3.109,2.03 -1.148,0.24 -1.984,-0.06 -3.207,-0.97 0.238,1.26 2.609,2.83 3.309,2.93 0.484,0.97 1.449,1.4 1.929,1.35 0.098,0.5 0.078,0.04 0.106,0.64 -1.176,0.16 -2.676,0.59 -2.641,2.55 -0.84,0.77 -1.367,0.94 -3.242,0.44 2.32,1.75 3.156,1.48 3.906,1.19 1.707,1.28 3.102,0.58 3.582,0.04 0.203,0.25 0.387,0.29 0.481,0.49 -0.399,1.24 -0.164,2.46 0.371,3 -0.039,1.35 -0.664,1.76 -1.914,2.03 2.57,-0.05 3.613,-0.64 4.453,-1.59 1.484,-0.19 2.402,-1.49 2.437,-2.43 0.039,-2.42 -2.535,-4.08 2.426,-6.65 1.539,-0.79 3.715,-1.58 5.91,-2.23 2.188,-0.64 4.891,-1.63 5.989,-1.63 -0.852,1.34 -0.497,2.68 -1.887,4.02 1.582,0.1 3.519,-0.44 4.961,-0.74 -0.305,1.94 0.179,1.95 -1.11,3.14 1.094,-0.15 2.653,-0.17 3.493,-0.27 5.64,-0.6 5.722,2.2 6.82,5.76 -1.926,-0.11 -5.168,-0.59 -8.238,-2.63 0.296,1.05 -0.036,1.89 -0.036,2.8 0,1.68 1.325,2.02 1.981,2.02 0.301,0 1.141,0.14 1.777,0.14 1.239,0 2.961,1.39 2.156,4.14 -0.386,1.32 -1.39,2.14 -2.539,1.8 -0.839,-0.24 -1.035,-0.22 -2.265,-0.68 -0.946,-0.35 -1.246,-1.09 -1.348,-2.08 -0.195,0.45 -0.535,1.72 -0.691,2.03 -0.188,0.38 -0.313,0.6 -0.66,1.45 -0.102,0.27 -0.079,0.27 -0.231,0.62 -0.59,1.38 0.348,2.55 1.543,2.78 0.992,0.19 2.59,0.6 3.574,0.89 1.953,0.59 2.559,1.36 2.973,2.39 0.441,1.09 0.711,1.5 2.512,1.5 0.562,0 2.605,-0.04 3.539,-0.04 2.73,0 5.804,2.22 4.797,4.58 1.902,-0.34 2.664,-3.38 2.195,-4.58 0.883,0 3.851,0.58 4.531,1.15 -0.015,-2.06 -1.621,-4.59 -2.762,-5.23 1.457,-0.14 4.028,0.07 4.805,0.74 -0.476,-1.56 -2.14,-4.9 -3.195,-5.37 2.551,-0.88 4.215,-2.25 5.355,-5.41 -1.933,0.8 -3.07,-0.16 -4.758,0.1 3.473,-4.07 4.758,-10.25 5.77,-11.79 -0.937,0.51 -2.82,1.56 -4.227,2.07 1.446,-3.37 -0.691,-6.7 -0.367,-8.49 -1.093,0.63 -2.511,1.41 -2.972,2.29 -0.567,-1.35 -1.766,-4.02 -1.309,-7.46 -0.883,0.94 -2.395,1.68 -3.074,2.19 -1.301,-1.87 -2.09,-3.07 -2.09,-7.87 0,-6.57 3.059,-12.84 4.391,-15.33 2.031,-3.81 2.535,-7.06 2.863,-8.35 0.648,-2.56 2.48,-4.22 4.906,-4.22 2.348,0 4.324,2.14 4.324,4.74 0,4.75 -5.789,7.77 -5.789,16.12 0,5.48 4.223,8.21 4.34,11.7 0.102,3.09 -2.73,1.18 -4.844,2.55 2.715,0.54 4.309,3.54 6.719,3.41 2.125,-0.13 2.613,-1.25 2.727,-2.34 0.156,-1.49 -0.813,-3.22 -1.125,-3.84 2.359,2.04 3.41,5.15 3.41,6.72 0,2.34 -3.305,4.95 -2.449,9.44 0.125,0.61 0.109,0.52 0.254,0.88 0.976,-5.05 8.152,-6.36 8.152,-11.36 0,-4.72 -4.074,-3.83 -6.414,-7.1 2.566,1.03 5.449,0.53 5.449,-2.28 z m -48.266,34.47 c -0.644,-2.38 -0.621,-5.44 2.711,-5.44 2.586,0 7.098,2.22 8.043,2.65 l 0.383,-0.84 c -0.742,-0.3 -6.633,-5.03 -11.391,-5.1 -2.66,-0.04 -3.562,1.57 -3.562,3.13 0,2.41 1.879,3.27 3.816,5.6 z m 12.93,42.15 -148.277,-143.68 c 105.879,-14.56 198.511,-15.59 271.383,-15.61 h 1.339 c 0,0 0.606,4.91 1.172,9.76 0.516,4.45 2.313,6.81 6.699,7.21 l 9.18,0.87 0.008,0.17 -141.504,141.28" /><path
                   id="path46"
                   style="fill:#611c66;fill-opacity:1;fill-rule:nonzero;stroke:none"
                   d="m 751.566,1423.71 c 0,-2.71 -4.144,-4.32 -4.98,-5.55 -0.41,-0.6 -0.762,-0.98 -0.934,-1.64 -0.504,1.76 0.442,3.21 0.442,4.48 0,1.42 -1.008,2.09 -2.453,2.09 -2.168,0 -8.004,-5.26 -4.481,-13.69 -0.242,2.99 0.867,4.97 1.375,5.52 0.504,0.56 0.969,1.66 0.852,2.53 1.148,-2.08 1.367,-3.01 1.367,-4.68 0,-3.61 -2.606,-4.36 -1.379,-7.03 0.23,-0.73 0.461,-1.33 0.84,-2.28 0,1.27 0.23,2.38 0.445,3.26 0.219,0.89 1.606,2.55 1.778,3.21 0.156,0.67 0.214,1.34 0.046,2.17 1.168,-1.45 1.942,-2.7 1.942,-5.04 0,-2.71 -1.219,-4.27 -1.555,-5.04 -0.328,-0.77 -0.719,-1.54 -0.883,-2.87 -0.746,-5.99 -3.695,-8.79 -7.578,-8.79 -2.437,0 -4.258,0.38 -5.812,1.37 0,-7.68 -8.743,-7.08 -8.743,-12.1 0,-1.39 0.942,-3.05 1.883,-3.99 0.934,-0.94 4.485,-2.25 5.805,-3.96 -1.906,-0.14 -3.969,-0.8 -5.078,-2.08 3.152,-1.56 3.07,-3.33 3.473,-5.72 -3.09,1.55 -4.508,0.65 -5.29,-0.18 -0.945,-1 -0.488,-2.31 -1.57,-3.86 -0.5,1.22 -1.312,2.25 -2.637,2.25 -1.332,0 -4.074,-2.4 -4.105,-3.18 -0.113,-2.1 -1.113,-2.93 -3.008,-3.17 -1.422,-1.51 -1.086,-2.28 -1.027,-3.7 -1.227,1.17 -1.426,1.92 -0.957,4.03 -1.422,0.58 -1.246,1.77 -0.824,2.81 l -0.532,0.37 c -0.761,-0.68 -1.55,-1.64 -3.437,-0.76 -0.723,-0.3 -1.684,-1.42 -1.824,-2.75 -0.493,3.17 0.5,4.27 1.031,4.74 -0.32,0.71 0.133,2.22 1.418,2.78 0,0.31 -0.11,0.47 -0.156,0.63 -1.055,0 -1.942,0.43 -2.321,1.09 -1.011,0.22 -2.406,-1 -2.672,-1.74 0,1.78 1.418,3.59 2.465,4.01 1.188,2.36 3.457,2.8 4.836,1.42 0.75,-0.75 2.567,-1.58 4.414,-1.58 1.836,0 3.512,1.52 3.961,2.13 0.442,0.62 0.496,0.72 0.711,1.23 0.402,0.91 1.172,1.98 -0.711,4.37 -1.496,1.87 -5.223,5.52 -5.285,8.12 -0.117,4.29 1.871,6.78 3.805,8.49 -0.68,0 -0.5,0 -1.528,0 -2.742,0 -2.98,1.71 -5.761,1.71 -2.047,0 -3.258,-2.05 -3.258,-3.82 0,-1.77 0.316,-2.14 0.941,-3.29 0.852,-1.58 1.156,-2.44 0.922,-4.04 -1.605,1.46 -3.906,2.19 -5.726,0.58 -0.708,-2.07 -1.153,-2.85 -2.465,-3.85 -0.11,1.72 -3.59,4.42 -6.723,1.53 -0.312,-0.72 -0.582,-2.36 -2.77,-2.36 -1.292,0 -1.164,0.31 -1.714,0.54 -0.895,-0.78 -1.641,-1.64 -1.903,-2.75 -0.461,1.68 0.141,3.14 0.731,3.85 -0.215,0.74 -0.153,2.56 0.793,3.06 -0.282,0.31 -0.184,0.11 -0.434,0.55 -1.351,-1.16 -3.504,-1.3 -4.43,0.01 -0.8,-0.15 -1.554,-0.69 -2.39,-2.4 -0.203,1.73 0.969,3.7 1.777,4.26 0.016,1.3 1.817,2.45 3.66,2.05 0.141,0.22 -0.027,0.37 0.18,0.65 0.191,0.26 -0.07,0.14 -0.07,0.14 -0.539,0.29 -2.297,0.36 -2.176,2.56 -1.07,0.38 -2.082,-0.12 -2.816,-0.76 0.722,1.87 2.292,2.48 3.503,2.59 0.426,0.82 1.778,0.91 2.461,0.91 1.286,0 2.149,-0.61 2.36,-1.41 1.297,-2.3 4.226,-3.06 7.113,-3.06 1.438,0 2.656,1.1 2.656,2.75 0,1.67 -2.832,6.5 -2.832,8.72 0,2.21 3.977,6.46 6.629,6.46 8.102,0 9.969,-3.39 11.789,-3.39 2.555,0 2.903,0.53 3.297,0.94 -3.82,4.7 -6.25,4.6 -9.898,7.1 -1.832,1.26 -2.77,3.37 -3.043,5.36 -2.258,-0.53 -4.453,-3.53 -5.512,-5.41 -0.504,0.89 -1.277,1.49 -2.219,1.49 -1.801,0 -3.082,-2.35 -3.933,-4.35 -0.516,2.29 -1.883,4.42 -4.524,4.42 -1.476,0 -3.14,-0.63 -3.558,-1.6 -0.422,-0.93 -1.809,-2.36 -3.969,-1.8 -0.789,-0.56 -1.504,-0.78 -2.051,-3.18 -0.742,3.01 0.004,3.58 0.426,4.31 -0.426,1.98 0.394,2.7 0.765,3.18 l -0.21,0.53 c -1.172,-0.38 -2.915,-0.25 -3.422,0.77 -1.317,0.06 -1.703,-0.11 -2.84,-1.8 0.226,1.91 1.312,3.49 2.523,3.95 0.453,1.14 2.012,1.59 3.25,1.59 0.106,0.32 0.207,0.32 0.262,0.59 -0.809,0.44 -1.496,1.46 -1.328,2.67 -0.996,1.15 -2.09,0.43 -3.004,0.09 1.598,1.66 3.473,2.27 4.738,1.54 2.731,0.9 3.684,-0.37 3.942,-1.89 0.312,-1.76 3.058,-2 5.89,-2 6.215,0 16.078,5.78 15.36,10.36 -1.469,0.37 -1.629,0.32 -2.782,0.32 -3.32,0 -7.464,-4.17 -10.738,-4.22 1.641,1.85 0.629,3.72 1.527,5.09 -1.789,0.05 -3.617,-1.08 -7.043,-0.77 1.157,0.68 1.942,3.1 1.942,3.94 0,0.85 0,2.53 -3.68,2.53 -0.363,-0.09 -1.359,-0.42 -2.101,-0.42 -0.875,0 -3.317,0.23 -3.317,2.15 -1.199,0.27 -2.094,-0.05 -3.39,-1.02 0.261,1.32 2.773,3.01 3.519,3.12 0.508,1.04 1.531,1.48 2.031,1.42 0.114,0.53 0.09,0.05 0.121,0.69 -1.25,0.16 -2.839,0.62 -2.808,2.7 -0.887,0.82 -1.438,1 -3.43,0.47 2.465,1.84 3.348,1.56 4.149,1.26 1.808,1.36 3.285,0.62 3.793,0.03 0.214,0.27 0.41,0.32 0.503,0.53 -0.417,1.31 -0.171,2.61 0.403,3.18 -0.051,1.43 -0.703,1.88 -2.039,2.15 2.73,-0.05 3.828,-0.68 4.722,-1.68 1.575,-0.21 2.559,-1.59 2.59,-2.57 0.043,-2.59 -2.683,-4.34 2.567,-7.06 1.636,-0.83 3.957,-1.67 6.269,-2.36 2.321,-0.68 5.196,-1.73 6.36,-1.73 -0.907,1.42 -0.539,2.83 -2.012,4.26 1.683,0.11 3.734,-0.47 5.262,-0.79 -0.317,2.06 0.195,2.06 -1.172,3.33 1.156,-0.16 2.808,-0.18 3.703,-0.28 5.984,-0.64 6.066,2.33 7.234,6.1 -2.047,-0.11 -5.476,-0.63 -8.738,-2.8 0.316,1.13 -0.035,2.03 -0.035,2.98 0,1.79 1.406,2.14 2.105,2.14 0.317,0 1.199,0.15 1.875,0.15 1.317,0 3.149,1.48 2.289,4.4 -0.406,1.39 -1.468,2.26 -2.691,1.9 -0.895,-0.26 -1.098,-0.24 -2.406,-0.72 -1.008,-0.36 -1.321,-1.14 -1.422,-2.2 -0.203,0.47 -0.567,1.82 -0.742,2.15 -0.196,0.41 -0.329,0.64 -0.688,1.54 -0.117,0.28 -0.09,0.29 -0.25,0.65 -0.629,1.47 0.367,2.7 1.633,2.95 1.047,0.21 2.738,0.64 3.781,0.95 2.09,0.62 2.723,1.43 3.16,2.53 0.469,1.14 0.746,1.6 2.657,1.6 0.601,0 2.773,-0.05 3.761,-0.05 2.903,0 6.164,2.36 5.086,4.87 2.028,-0.37 2.832,-3.6 2.336,-4.87 0.93,0 4.09,0.61 4.797,1.22 -0.008,-2.18 -1.707,-4.87 -2.922,-5.54 1.547,-0.16 4.27,0.07 5.086,0.77 -0.504,-1.65 -2.269,-5.18 -3.379,-5.69 2.699,-0.93 4.473,-2.38 5.68,-5.73 -2.051,0.84 -3.258,-0.17 -5.051,0.1 3.688,-4.31 5.059,-10.87 6.121,-12.5 -1.004,0.53 -2.996,1.64 -4.48,2.2 1.523,-3.58 -0.735,-7.11 -0.395,-9.02 -1.156,0.68 -2.66,1.5 -3.14,2.45 -0.618,-1.45 -1.887,-4.27 -1.387,-7.92 -0.942,1 -2.555,1.77 -3.266,2.33 -1.383,-1.99 -2.215,-3.27 -2.215,-8.36 0,-6.96 3.235,-13.61 4.649,-16.25 2.156,-4.05 2.691,-7.49 3.035,-8.86 0.684,-2.71 2.637,-4.48 5.207,-4.48 2.484,0 4.582,2.27 4.582,5.04 0,5.03 -6.133,8.23 -6.133,17.08 0,5.81 4.473,8.71 4.598,12.42 0.113,3.27 -2.891,1.24 -5.129,2.7 2.867,0.57 4.562,3.75 7.117,3.61 2.258,-0.13 2.77,-1.32 2.895,-2.48 0.164,-1.57 -0.868,-3.41 -1.2,-4.07 2.5,2.16 3.614,5.46 3.614,7.13 0,2.49 -3.496,5.24 -2.586,10.01 0.121,0.65 0.109,0.55 0.273,0.93 1.031,-5.36 8.633,-6.74 8.633,-12.05 0,-5.01 -4.312,-4.05 -6.781,-7.52 2.703,1.1 5.765,0.56 5.765,-2.43 z m -51.187,36.57 c -0.688,-2.53 -0.652,-5.78 2.871,-5.78 2.738,0 7.531,2.35 8.531,2.82 l 0.41,-0.9 c -0.796,-0.32 -7.043,-5.33 -12.086,-5.4 -2.816,-0.04 -3.777,1.66 -3.777,3.31 0,2.56 1.996,3.47 4.051,5.95 z m -89.242,-44.62 c 0,-2.62 -3.977,-4.14 -4.782,-5.32 -0.402,-0.59 -0.73,-0.95 -0.898,-1.58 -0.477,1.68 0.422,3.07 0.422,4.28 0,1.38 -0.965,2.03 -2.344,2.03 -2.086,0 -7.683,-5.05 -4.308,-13.15 -0.223,2.88 0.836,4.77 1.324,5.3 0.476,0.53 0.922,1.59 0.816,2.43 1.098,-2 1.317,-2.9 1.317,-4.49 0,-3.46 -2.496,-4.18 -1.329,-6.75 0.219,-0.7 0.442,-1.27 0.813,-2.18 0,1.21 0.215,2.27 0.43,3.13 0.203,0.84 1.531,2.42 1.691,3.08 0.164,0.64 0.211,1.28 0.055,2.07 1.113,-1.38 1.855,-2.59 1.855,-4.83 0,-2.6 -1.168,-4.09 -1.496,-4.84 -0.301,-0.75 -0.68,-1.48 -0.832,-2.75 -0.726,-5.73 -3.555,-8.44 -7.269,-8.44 -2.34,0 -4.09,0.37 -5.586,1.33 0,-7.38 -8.391,-6.8 -8.391,-11.63 0,-1.33 0.91,-2.91 1.809,-3.82 0.89,-0.9 4.304,-2.15 5.57,-3.8 -1.832,-0.13 -3.813,-0.76 -4.863,-1.99 3.015,-1.5 2.937,-3.2 3.324,-5.49 -2.965,1.48 -4.32,0.62 -5.078,-0.18 -0.907,-0.96 -0.473,-2.22 -1.504,-3.69 -0.485,1.17 -1.258,2.15 -2.528,2.15 -1.289,0 -3.906,-2.31 -3.945,-3.05 -0.109,-2.01 -1.062,-2.81 -2.887,-3.04 -1.359,-1.46 -1.035,-2.19 -0.98,-3.55 -1.176,1.11 -1.367,1.84 -0.918,3.86 -1.367,0.55 -1.203,1.7 -0.793,2.7 l -0.512,0.36 c -0.726,-0.66 -1.484,-1.58 -3.297,-0.73 -0.699,-0.3 -1.601,-1.36 -1.753,-2.64 -0.477,3.04 0.488,4.1 0.992,4.54 -0.313,0.7 0.133,2.13 1.363,2.67 0,0.3 -0.109,0.45 -0.152,0.6 -1.012,0 -1.864,0.41 -2.223,1.06 -0.98,0.2 -2.316,-0.97 -2.566,-1.68 0,1.71 1.363,3.44 2.371,3.85 1.133,2.27 3.312,2.68 4.629,1.36 0.726,-0.73 2.472,-1.51 4.238,-1.51 1.758,0 3.375,1.46 3.801,2.05 0.418,0.58 0.48,0.69 0.683,1.17 0.395,0.87 1.133,1.9 -0.683,4.18 -1.43,1.81 -5.004,5.31 -5.075,7.81 -0.105,4.12 1.801,6.5 3.653,8.15 -0.653,0 -0.473,0 -1.469,0 -2.621,0 -2.855,1.63 -5.527,1.63 -1.957,0 -3.121,-1.95 -3.121,-3.66 0,-1.7 0.308,-2.06 0.902,-3.16 0.82,-1.52 1.109,-2.35 0.891,-3.88 -1.543,1.4 -3.743,2.11 -5.5,0.55 -0.676,-1.97 -1.102,-2.73 -2.364,-3.67 -0.105,1.63 -3.461,4.23 -6.465,1.45 -0.3,-0.69 -0.558,-2.26 -2.66,-2.26 -1.238,0 -1.117,0.3 -1.644,0.51 -0.856,-0.74 -1.574,-1.57 -1.828,-2.63 -0.438,1.61 0.132,3.02 0.703,3.7 -0.199,0.69 -0.145,2.44 0.761,2.93 -0.277,0.29 -0.164,0.1 -0.414,0.53 -1.304,-1.12 -3.359,-1.24 -4.261,0.02 -0.754,-0.15 -1.481,-0.69 -2.285,-2.31 -0.192,1.65 0.937,3.53 1.703,4.08 0.015,1.27 1.742,2.34 3.519,1.96 0.129,0.22 -0.023,0.37 0.168,0.63 0.184,0.26 -0.07,0.14 -0.07,0.14 -0.512,0.28 -2.199,0.35 -2.09,2.45 -1.023,0.37 -1.996,-0.12 -2.703,-0.72 0.695,1.8 2.211,2.37 3.359,2.48 0.422,0.78 1.719,0.87 2.371,0.87 1.231,0 2.063,-0.58 2.266,-1.35 1.246,-2.21 4.055,-2.94 6.816,-2.94 1.395,0 2.555,1.06 2.555,2.65 0,1.6 -2.699,6.23 -2.699,8.36 0,2.12 3.808,6.2 6.367,6.2 7.77,0 9.559,-3.25 11.309,-3.25 2.445,0 2.773,0.51 3.164,0.89 -3.672,4.51 -6.012,4.41 -9.508,6.82 -1.754,1.21 -2.652,3.24 -2.918,5.15 -2.176,-0.51 -4.27,-3.4 -5.289,-5.2 -0.485,0.85 -1.223,1.43 -2.121,1.43 -1.727,0 -2.969,-2.26 -3.781,-4.18 -0.5,2.2 -1.809,4.24 -4.336,4.24 -1.418,0 -3.02,-0.61 -3.418,-1.52 -0.403,-0.9 -1.739,-2.27 -3.809,-1.74 -0.758,-0.53 -1.441,-0.74 -1.969,-3.05 -0.703,2.89 0.008,3.43 0.41,4.14 -0.41,1.91 0.387,2.6 0.739,3.05 l -0.196,0.51 c -1.132,-0.36 -2.8,-0.24 -3.296,0.74 -1.266,0.05 -1.633,-0.1 -2.719,-1.74 0.215,1.85 1.258,3.36 2.414,3.81 0.437,1.08 1.933,1.52 3.121,1.52 0.101,0.3 0.191,0.31 0.25,0.56 -0.774,0.43 -1.426,1.4 -1.274,2.56 -0.953,1.11 -2.003,0.42 -2.878,0.1 1.531,1.58 3.32,2.18 4.543,1.47 2.625,0.87 3.539,-0.35 3.785,-1.83 0.297,-1.68 2.929,-1.91 5.652,-1.91 5.961,0 15.426,5.55 14.738,9.94 -1.414,0.36 -1.562,0.31 -2.672,0.31 -3.183,0 -7.164,-3.99 -10.293,-4.04 1.563,1.77 0.598,3.57 1.461,4.88 -1.718,0.05 -3.476,-1.03 -6.765,-0.74 1.109,0.65 1.871,2.98 1.871,3.78 0,0.82 0,2.44 -3.539,2.44 -0.352,-0.1 -1.305,-0.41 -2.016,-0.41 -0.832,0 -3.176,0.21 -3.176,2.06 -1.16,0.26 -2.007,-0.05 -3.265,-0.98 0.254,1.27 2.664,2.89 3.383,3 0.488,0.98 1.468,1.42 1.953,1.36 0.101,0.5 0.082,0.04 0.117,0.65 -1.207,0.17 -2.731,0.6 -2.691,2.59 -0.852,0.79 -1.391,0.96 -3.301,0.45 2.363,1.77 3.211,1.51 3.98,1.23 1.735,1.29 3.149,0.58 3.645,0.02 0.203,0.26 0.39,0.3 0.48,0.5 -0.398,1.27 -0.164,2.5 0.383,3.06 -0.039,1.37 -0.68,1.79 -1.949,2.06 2.617,-0.04 3.683,-0.65 4.531,-1.62 1.504,-0.19 2.453,-1.51 2.477,-2.46 0.046,-2.48 -2.575,-4.17 2.464,-6.77 1.575,-0.81 3.79,-1.62 6.016,-2.27 2.231,-0.65 4.981,-1.66 6.098,-1.66 -0.864,1.36 -0.5,2.72 -1.934,4.09 1.625,0.1 3.59,-0.45 5.059,-0.75 -0.309,1.97 0.187,1.98 -1.125,3.19 1.105,-0.16 2.691,-0.18 3.558,-0.27 5.743,-0.62 5.821,2.23 6.934,5.85 -1.957,-0.11 -5.254,-0.6 -8.379,-2.68 0.301,1.08 -0.039,1.93 -0.039,2.85 0,1.72 1.352,2.06 2.016,2.06 0.312,0 1.156,0.14 1.816,0.14 1.25,0 3.008,1.43 2.187,4.22 -0.394,1.34 -1.41,2.18 -2.582,1.83 -0.859,-0.25 -1.054,-0.23 -2.316,-0.69 -0.957,-0.35 -1.258,-1.1 -1.359,-2.13 -0.192,0.47 -0.547,1.76 -0.711,2.07 -0.184,0.39 -0.317,0.63 -0.664,1.48 -0.106,0.27 -0.078,0.28 -0.239,0.63 -0.601,1.41 0.352,2.6 1.567,2.83 1.012,0.21 2.633,0.62 3.633,0.91 2.004,0.61 2.609,1.37 3.039,2.43 0.445,1.1 0.711,1.54 2.543,1.54 0.582,0 2.656,-0.06 3.609,-0.06 2.781,0 5.91,2.27 4.883,4.67 1.941,-0.35 2.711,-3.44 2.23,-4.67 0.903,0 3.922,0.59 4.61,1.17 -0.016,-2.09 -1.641,-4.67 -2.801,-5.31 1.476,-0.15 4.09,0.06 4.883,0.74 -0.481,-1.58 -2.18,-4.98 -3.25,-5.46 2.59,-0.9 4.289,-2.29 5.449,-5.5 -1.969,0.81 -3.129,-0.17 -4.844,0.1 3.543,-4.14 4.852,-10.44 5.867,-12 -0.953,0.52 -2.867,1.58 -4.297,2.11 1.469,-3.44 -0.699,-6.81 -0.382,-8.64 -1.106,0.64 -2.539,1.43 -3.012,2.34 -0.586,-1.4 -1.801,-4.1 -1.328,-7.6 -0.903,0.96 -2.445,1.7 -3.129,2.24 -1.328,-1.91 -2.129,-3.14 -2.129,-8.03 0,-6.67 3.109,-13.06 4.461,-15.58 2.074,-3.89 2.59,-7.19 2.922,-8.51 0.648,-2.6 2.519,-4.29 4.984,-4.29 2.391,0 4.41,2.17 4.41,4.83 0,4.83 -5.898,7.9 -5.898,16.39 0,5.58 4.289,8.36 4.414,11.91 0.109,3.14 -2.773,1.2 -4.926,2.6 2.758,0.54 4.383,3.6 6.832,3.46 2.176,-0.12 2.668,-1.26 2.774,-2.39 0.168,-1.5 -0.825,-3.26 -1.141,-3.89 2.398,2.07 3.465,5.23 3.465,6.83 0,2.39 -3.352,5.04 -2.492,9.61 0.125,0.62 0.117,0.53 0.273,0.9 0.996,-5.14 8.285,-6.47 8.285,-11.56 0,-4.81 -4.144,-3.89 -6.508,-7.23 2.59,1.06 5.532,0.53 5.532,-2.32 z m -49.117,35.08 c -0.653,-2.43 -0.625,-5.54 2.757,-5.54 2.633,0 7.227,2.25 8.18,2.7 l 0.395,-0.86 c -0.754,-0.31 -6.75,-5.12 -11.586,-5.18 -2.711,-0.04 -3.637,1.59 -3.637,3.18 0,2.46 1.922,3.32 3.891,5.7 z m 209.761,45.45 c -86.402,-0.73 -167.504,-9.16 -227.933,-22.78 -23.914,-5.39 -32.809,-22.71 -35.395,-36.55 -7.328,-39.21 -16.808,-116.73 -13.812,-196.45 14.703,13.99 150.168,145.73 150.168,145.73 L 785.574,1245.6 c 0,96.5 -6.312,188.95 -13.793,250.59" /><path
                   id="path48"
                   style="fill:#611c66;fill-opacity:1;fill-rule:nonzero;stroke:none"
                   d="m 576.727,1456.47 c -0.407,-0.76 -0.137,-2.06 0.273,-2.68 0.656,0.07 2.223,0.51 3.063,1.04 0.98,0.61 1.253,1.06 2.3,1.81 -1.008,0.07 -5.488,0.1 -5.636,-0.17" /><path
                   id="path50"
                   style="fill:#611c66;fill-opacity:1;fill-rule:nonzero;stroke:none"
                   d="m 715.707,1466.25 c -0.422,-0.79 -0.141,-2.16 0.285,-2.79 0.688,0.06 2.313,0.53 3.196,1.08 1.015,0.62 1.3,1.11 2.39,1.88 -1.047,0.08 -5.719,0.1 -5.871,-0.17" /></g></g></g></g></g></g></g></svg>
